<svg xmlns="http://www.w3.org/2000/svg" viewBox="0 0 96 96" role="img" aria-labelledby="title">
  <title id="title">Stellaris Star</title>
  <defs><linearGradient id="blue" x1="18" y1="15" x2="78" y2="82" gradientUnits="userSpaceOnUse"><stop stop-color="#08245d"/><stop offset="1" stop-color="#1559df"/></linearGradient></defs>
  <path d="M48 5 55 40 87 48 55 56 48 91 41 56 9 48 41 40 48 5Z" fill="url(#blue)"/>
  <path d="M48 5v43H9l32-8L48 5Z" fill="#071b4b"/>
  <path d="M48 48h39l-32 8-7 35V48Z" fill="#0f45b9"/>
  <path d="M48 20 52 43 73 48 52 53 48 76 44 53 23 48 44 43 48 20Z" fill="#f7fbff"/>
  <path d="M48 29 51 45 65 48 51 51 48 67 45 51 31 48 45 45 48 29Z" fill="#6f94cd"/>
  <path d="M69 20c9 2 14 9 14 18" fill="none" stroke="#6f94cd" stroke-width="2" stroke-linecap="round"/>
  <path d="m76 13 1.8 5.2L83 20l-5.2 1.8L76 27l-1.8-5.2L69 20l5.2-1.8L76 13Z" fill="#1559df"/>
  <path d="M25 70c-7-3-11-9-11-16" fill="none" stroke="#9eabc4" stroke-width="2" stroke-linecap="round"/>
  <path d="m15 67 1.5 4.5L21 73l-4.5 1.5L15 79l-1.5-4.5L9 73l4.5-1.5L15 67Z" fill="#8998b5"/>
</svg>
